<svg xmlns="http://www.w3.org/2000/svg" width="1080" height="1080" viewBox="0 0 1080 1080"><title>logo_telikoCOLOURED</title><path d="M411.54,689.37A73.49,73.49,0,0,0,418.1,672a162.48,162.48,0,0,0,4-22.43,225.45,225.45,0,0,0,1.37-25.18,228,228,0,0,0-1.37-25.27,175.85,175.85,0,0,0-4-22.92,80.59,80.59,0,0,0-6.56-18.12v-2.94H513.8v39.18h-1a25.24,25.24,0,0,0-8.71-9.79,65.32,65.32,0,0,0-12.84-6.86,74.1,74.1,0,0,0-13.42-4,57.78,57.78,0,0,0-10.48-1.27v45.06a26.26,26.26,0,0,0,5.78-.79,42.6,42.6,0,0,0,7-2.25,28.83,28.83,0,0,0,6.46-3.72,14.53,14.53,0,0,0,4.31-5h.39v32.52h-.39a14.4,14.4,0,0,0-4.11-4.89,27.46,27.46,0,0,0-6.17-3.63,40.11,40.11,0,0,0-6.86-2.25,28.92,28.92,0,0,0-6.37-.79v48.59A57.78,57.78,0,0,0,477.85,674a74.1,74.1,0,0,0,13.42-4,65.86,65.86,0,0,0,12.84-6.86,25.24,25.24,0,0,0,8.71-9.79h1v39.18H467.37l-55.83-.2Z"/><path d="M590.12,619.39a105.8,105.8,0,0,0-8.92-22.92v-2.9h-9.89v2.94a27.43,27.43,0,0,1,5,10,68.85,68.85,0,0,1,2.24,12.93q.6,7,.5,15.08c-.07,5.35-.18,10.85-.3,16.45a56.18,56.18,0,0,1-2.54,15.1,31.13,31.13,0,0,1-5.29,10.18c-2.09,2.48-4.35,3.88-6.76,4.21a7.69,7.69,0,0,1-6.66-2.54q-3-3-5.09-10t-2.07-18.51q0-13.9-.19-27.72t-.4-27.72H522v84.45a37.57,37.57,0,0,0,11.55,9.38,41.66,41.66,0,0,0,19.58,4.71,43.14,43.14,0,0,0,19.6-4.51,39.53,39.53,0,0,0,14.69-12.91c1-2.84,2-5.72,2.74-8.67a92.06,92.06,0,0,0,3-23.42A94.34,94.34,0,0,0,590.12,619.39Z"/><path d="M673.93,596.25a26.9,26.9,0,0,0-12.25-3.14A32.81,32.81,0,0,0,649,595.56a44.47,44.47,0,0,0-10.77,6.37v-8.42H586.26v2.94a106.55,106.55,0,0,1,8.92,22.91,94.77,94.77,0,0,1,3,23.62,92.1,92.1,0,0,1-12,45.34v2.94l51.92.2v-71.9q5.87-6.07,12-5.09a11,11,0,0,1,5.19,2.15A58.2,58.2,0,0,1,660.9,621c1.22,1.09,2.38,2.2,3.48,3.35h0a40.14,40.14,0,0,1,2-4.42,53.86,53.86,0,0,1,12.93-16c.86-.72,1.74-1.41,2.64-2.06A33.07,33.07,0,0,0,673.93,596.25Z"/><path d="M756.24,626.78q0-10.17-.83-19.86a31.54,31.54,0,0,0-4.66-5.7,34.77,34.77,0,0,0-12.63-7.84,44.34,44.34,0,0,0-15-2.55,56.78,56.78,0,0,0-19.68,3.63,59.15,59.15,0,0,0-17.83,10.27,54.24,54.24,0,0,0-12.93,16,43,43,0,0,0-5,20.67,54.08,54.08,0,0,0,4,20.77,50.89,50.89,0,0,0,11.47,17.14,54.2,54.2,0,0,0,18.12,11.65,63.45,63.45,0,0,0,24,4.32,86.13,86.13,0,0,0,17.93-2c.36-.07.72-.15,1.09-.25v-1.3a74,74,0,0,0,6.55-17.34c.18-.69.36-1.38.52-2.08-1,.65-2,1.28-3,1.88a68.14,68.14,0,0,1-8.23,4.21,19,19,0,0,1-7.45,1.76,10.36,10.36,0,0,1-7.63-3.42,25.43,25.43,0,0,1-5.4-8.92,59.42,59.42,0,0,1-3-12.54,101,101,0,0,1-1-14.29q20,0,40.16-.45Q756.25,633.78,756.24,626.78Zm-40.16,4.8a85.51,85.51,0,0,1,2.64-12.24,32.77,32.77,0,0,1,4.4-9.5,26.16,26.16,0,0,1,2.94,7.73,71.14,71.14,0,0,1,1.77,14Z"/><path d="M859.29,693.78a32.91,32.91,0,0,1-11.65-5.19,29.38,29.38,0,0,1-8.72-9.8q-3.43-6.06-3.63-15.48a32.6,32.6,0,0,1,.79-8.34,150.21,150.21,0,0,1-7.61-13.29,60.77,60.77,0,0,1-6-17.35q7.05-8.22,14.2-16.26t13.23-15.48v-2.94H819.36a34.56,34.56,0,0,1-1,19.5,92.13,92.13,0,0,1-10.19,21.06V557.92H752.36v2.94A80.79,80.79,0,0,1,758.91,579a176,176,0,0,1,4,22.93,231.14,231.14,0,0,1,0,50.44,162.48,162.48,0,0,1-4,22.43,73.51,73.51,0,0,1-6.55,17.33v2.94l55.82.2V652a129.51,129.51,0,0,1,8.93,22.63,39.76,39.76,0,0,1,.48,18.52v1.95l48.58.2V695A57.2,57.2,0,0,1,859.29,693.78Z"/><path d="M932.09,635.69q-.2,7.45-.19,16.36t.49,16.85a89.47,89.47,0,0,0,1.76,13.71q1.27,5.77,3.82,7v2.74H890.56v-2.16a35.36,35.36,0,0,1-6.46,1.57,51.91,51.91,0,0,1-8,.59,55.08,55.08,0,0,1-12.43-1.47A32.88,32.88,0,0,1,852,685.65a29.37,29.37,0,0,1-8.72-9.8c-2.29-4-3.49-9.21-3.62-15.47a32.37,32.37,0,0,1,2.25-13.13,29.47,29.47,0,0,1,7.25-10.58,34.14,34.14,0,0,1,11.75-7,45.64,45.64,0,0,1,15.77-2.55c1.31,0,3.17.07,5.59.2a53.61,53.61,0,0,1,7.54,1c0-2.35-.13-4.87-.39-7.54a30.1,30.1,0,0,0-1.57-7.25,15.94,15.94,0,0,0-3.14-5.39,6.77,6.77,0,0,0-5.28-2.16,12.61,12.61,0,0,0-5.29,1.38,34.91,34.91,0,0,0-5.78,3.42c-1.9,1.38-3.66,2.78-5.29,4.22a47.85,47.85,0,0,0-4,3.91h-.78q-.4-4.5-.79-9l-.78-9a67.18,67.18,0,0,1,14.4-5.19,66.42,66.42,0,0,1,15.57-1.86,59.88,59.88,0,0,1,16.75,2.35,41.27,41.27,0,0,1,14.4,7.35,37.16,37.16,0,0,1,10.19,13Q931.9,624.53,932.09,635.69ZM890,638.44a9.34,9.34,0,0,0-6.85,3.33,22,22,0,0,0-4.21,7.34,43.46,43.46,0,0,0-2.06,8.62,56.93,56.93,0,0,0-.59,7.15q0,2.36.29,5.78a24.73,24.73,0,0,0,1.47,6.56,15,15,0,0,0,3.43,5.39,8.08,8.08,0,0,0,6,2.25,7.08,7.08,0,0,0,3.13-.58Z"/><path d="M409.71,410.21c-22.29-46-81.28-59.38-122.89-51.54-7.56,1.43-44.13,9.12-68.22,41.36-23.25,31.11-19.79,64.87-17.93,82.93,4.31,42,26.49,71.19,37.57,83.86,16.9,23.25,16.73,40.6,18.69,52.35,2.37,14.24,1.92,17.44,3.08,19.76a12.64,12.64,0,0,0,.88,1.3c5.17,6.78,42.93,5.46,42.93,5.46,29.72-1.05,41.69,2.07,45.7-5,1.66-2.92,1.2-6.25.58-8.55a143.56,143.56,0,0,1-.78-25.61c.45-7.55,2.21-33.24,15.91-57.58,12.51-22.23,22.65-21.42,35.07-38.37C418.77,485.42,425.79,443.42,409.71,410.21ZM287,401.27a63.59,63.59,0,0,0-25.8,11.89c-6,4.67-18.66,14.6-17.79,24.62.15,1.7.91,5.86-.88,6.79-1.32.68-3.35-.71-3.56-.85-4.84-3.29-2.85-17.45,1.78-27.17,9.78-20.53,37.05-34.6,48.92-28,4,2.2,7.55,7.46,6.22,10.19C294.76,400.94,290.73,400.85,287,401.27Z" fill="#e4572e"/><path d="M335,587.2s1.85-24,14.46-46.51c9.56-17.13,19-13.28,32.92-29.33,19.08-22.05,29.75-62.21,12.87-81.78-8.39-9.73-26.16-17.41-43-17.82l-1.71,0c-28.17-.13-46.18,18-51.6,23.43-.66.67-1.44,1.44-2.39,2.48-18.76,20.55-25.54,58.25-12,85.8,10.26,20.91,22.5,16.17,28.59,35.82,6.44,20.82-2.82,40.58,7.3,46.77,2.26,1.38,5.62,2.13,8.31,1C334.42,604.62,334.44,594.17,335,587.2Z" fill="#ffc914"/><path d="M305,662.41c-5.84.09-30.87.93-41.24.47,0,0-5.78-.43-7.65-2.94a6.7,6.7,0,0,1-1.17-3.51c0-.47-.36-4.19,2-6,.41-.32,1.64-1.37,7.19-.76a29,29,0,0,1,7.56,1.55c4.85,1.64,10.48,1.78,21.75,2.07,8.24.2,14.46-.23,15.21-.26C327.57,652.3,337,652,339,651.58c4.68-.89,10.67-2.42,14.08.56a7.78,7.78,0,0,1,2.45,4.22,6.75,6.75,0,0,1-1.12,4.73c-1.89,2.36-6.33,1.91-7.65,1.79C336.17,661.9,314.77,662.25,305,662.41Z" fill="#e4572e"/><path d="M306.65,671.57s-16.61-.84-34.71,0c0,0-4.75.36-6.29,2.42a5.53,5.53,0,0,0-1,2.89c0,.38-.3,3.44,1.62,4.93,1,.79,2,.68,5.91.63,2,0,3.94.1,5.91,0,6.37-.31,48.65,1.28,61.93.21,1.48-.12,5.06-.47,6.48-2.75a6.41,6.41,0,0,0,.78-3,5.94,5.94,0,0,0-.92-3.89c-1.47-1.78-4.73-1.51-5.8-1.44C335.39,671.94,323.38,671.86,306.65,671.57Z" fill="#e4572e"/><path d="M308.84,297.82c0,7.6.05,15.2,0,22.8,0,5.21-2.86,8.29-7.33,8.25s-7.2-3.11-7.21-8.36q-.07-22.58,0-45.15c0-5.18,2.88-8.32,7.33-8.28s7.19,3.16,7.23,8.38C308.88,282.92,308.84,290.37,308.84,297.82Z" fill="#e4572e"/><path d="M484,372.09c-.76.91-1.92,3.36-3.9,4.48-14.34,8.14-28.81,16.07-43.32,23.93a7.08,7.08,0,0,1-9.87-2.6,6.4,6.4,0,0,1,2.56-9.16c14.66-8.22,29.35-16.38,44.19-24.27C478.5,361.89,484.08,365.48,484,372.09Z" fill="#e4572e"/><path d="M171,402.23a55.67,55.67,0,0,1-5.4-2.1q-21.12-11.55-42.18-23.21c-4.36-2.43-5.56-6.46-3.27-10s6.27-4.26,10.47-2c14.08,7.7,28.12,15.48,42.16,23.23,3.43,1.89,5.53,4.78,3.84,8.34C175.51,398.85,172.8,400.46,171,402.23Z" fill="#e4572e"/><path d="M177.11,541.15c-.71.9-1.73,3.31-3.59,4.36q-21.72,12.32-43.73,24.14a7.09,7.09,0,0,1-9.85-2.71,6.42,6.42,0,0,1,2.7-9.13c14.51-8.14,29.07-16.23,43.75-24.09C171.47,531,177.23,534.49,177.11,541.15Z" fill="#e4572e"/><path d="M302.22,809.11c.34-24.24-6.35-34.23-13.22-38.66-6.28-4.05-18.65-7.28-22.44-17.89a22.83,22.83,0,0,1-.77-2.88c-3.82-17.31,5-24,5.25-43.72,0-5.19-.49-11.54,3.42-13.88a7.16,7.16,0,0,1,4.27-.81c8,.51,16-.38,23.95,0,7,.32,17.17.28,25.67,0,5.25-.18,9.87-.45,12.83,2.44,2.61,2.56,2.54,6.22,2.56,9,.17,22.16,6.32,29.51,1.71,43.27a67.69,67.69,0,0,1-2.95,7.21,64.2,64.2,0,0,1-7.31,11.57c-15.54,19.92-21.73,26.33-25.66,37.55a57.17,57.17,0,0,0-1.89,6.66,8.58,8.58,0,0,1-.21-1.33c0-14.53,0-29,0-43.57a2.21,2.21,0,0,1,1.54-2.35,8.23,8.23,0,0,0,4.67-9.6,9,9,0,0,0-8.64-6.44,8.86,8.86,0,0,0-8.66,6.4,8.22,8.22,0,0,0,4.61,9.63c1,.48,1.59.86,1.59,2.1-.06,14.73,0,29.46,0,44.19A7.85,7.85,0,0,1,302.22,809.11Z" fill="#e4572e"/></svg>