<svg xmlns="http://www.w3.org/2000/svg" width="54" height="57" viewBox="0 0 54 57"><title>lamp</title><path d="M36,17.41c-1.93-4-7-5.15-10.65-4.47a9.88,9.88,0,0,0-5.92,3.59,9.7,9.7,0,0,0-1.55,7.19A13.22,13.22,0,0,0,21.15,31a8.59,8.59,0,0,1,1.62,4.54A13.82,13.82,0,0,0,23,37.24l.08.12c.45.58,3.72.47,3.72.47,2.58-.09,3.62.18,4-.43a1,1,0,0,0,.05-.74,12.37,12.37,0,0,1-.07-2.22,11.78,11.78,0,0,1,1.38-5c1.08-1.93,2-1.86,3-3.33A8.92,8.92,0,0,0,36,17.41ZM21.59,19.8c0,.15.08.51-.08.59s-.29-.06-.3-.07C20.79,20,21,18.8,21.36,18c.85-1.78,3.21-3,4.24-2.43.35.19.66.65.54.89s-.44.18-.77.22a5.38,5.38,0,0,0-2.24,1C22.62,18.07,21.52,18.93,21.59,19.8Zm12.05,6.38c-1.2,1.39-2,1.06-2.85,2.54a11.07,11.07,0,0,0-1.25,4c-.05.6-.05,1.51-.55,1.72a.83.83,0,0,1-.72-.09c-.87-.54-.07-2.25-.63-4.05s-1.59-1.3-2.48-3.11a7.14,7.14,0,0,1,1-7.44l.21-.21a6.27,6.27,0,0,1,4.48-2H31a5.45,5.45,0,0,1,3.73,1.54C36.22,20.79,35.3,24.27,33.64,26.18Z" fill="#fff"/><path d="M26.94,39.28c-.51,0-2.68.08-3.58,0,0,0-.5,0-.66-.25a.52.52,0,0,1-.1-.31.61.61,0,0,1,.17-.52s.14-.12.62-.07a2.79,2.79,0,0,1,.66.14,7,7,0,0,0,1.88.18c.72,0,1.26,0,1.32,0,1.64-.07,2.46-.1,2.63-.13.41-.08.93-.21,1.22,0a.66.66,0,0,1,.21.36.55.55,0,0,1-.09.42c-.17.2-.55.16-.67.15C29.64,39.24,27.78,39.27,26.94,39.28Z" fill="#fff"/><path d="M27.08,40.07s-1.44-.07-3,0c0,0-.41,0-.55.21a.44.44,0,0,0-.08.25.52.52,0,0,0,.14.43c.09.07.18.06.51,0,.17,0,.35,0,.52,0,.55,0,4.21.11,5.37,0a.75.75,0,0,0,.56-.24.68.68,0,0,0,.07-.25.54.54,0,0,0-.08-.34c-.13-.16-.41-.13-.51-.13C29.57,40.11,28.53,40.1,27.08,40.07Z" fill="#fff"/><path d="M27.27,7.67v2c0,.45-.25.72-.64.72S26,10.09,26,9.63c0-1.3,0-2.61,0-3.91,0-.45.24-.72.63-.72s.62.27.63.73Z" fill="#fff"/><path d="M42.46,14.11c-.07.07-.17.29-.34.38-1.24.71-2.5,1.4-3.76,2.08a.61.61,0,0,1-.85-.23.54.54,0,0,1,.22-.79c1.27-.71,2.54-1.42,3.83-2.11C42,13.22,42.46,13.53,42.46,14.11Z" fill="#fff"/><path d="M15.32,16.72c-.23-.09-.36-.12-.47-.18l-3.66-2a.58.58,0,0,1-.28-.86.63.63,0,0,1,.9-.17l3.66,2c.3.17.48.42.33.73S15.47,16.57,15.32,16.72Z" fill="#fff"/><path d="M15.85,28.77c-.07.07-.15.28-.32.37-1.25.71-2.52,1.41-3.79,2.1a.62.62,0,0,1-.85-.24.56.56,0,0,1,.23-.79c1.26-.71,2.52-1.41,3.8-2.09A.64.64,0,0,1,15.85,28.77Z" fill="#fff"/><path d="M26.7,52c0-2.1-.56-3-1.15-3.35S23.93,48,23.6,47.1a1.31,1.31,0,0,1-.06-.25c-.34-1.5.43-2.08.45-3.79,0-.45,0-1,.3-1.21a.71.71,0,0,1,.37-.07c.69,0,1.38,0,2.08,0s1.48,0,2.22,0c.46,0,.86,0,1.11.21a1.07,1.07,0,0,1,.23.78c0,1.92.54,2.56.14,3.75a5.28,5.28,0,0,1-.25.63,5.45,5.45,0,0,1-.64,1c-1.34,1.73-1.88,2.29-2.22,3.26a5.62,5.62,0,0,0-.17.58c0-.05,0-.08,0-.12,0-1.26,0-2.52,0-3.78a.2.2,0,0,1,.14-.2.71.71,0,0,0,.4-.83.77.77,0,0,0-.75-.56.78.78,0,0,0-.75.55.72.72,0,0,0,.4.84c.09,0,.14.07.14.18V51.9S26.71,51.94,26.7,52Z" fill="#fff"/></svg>